/* XPM */
static char *d1832bb452cf4556ae9b38c07ea47e9cKs48gCsplesyBuCZ[] = {
/* columns rows colors chars-per-pixel */
"32 32 25 1 ",
"  c None",
". c #2E241C",
"X c #4A270D",
"o c #5D310D",
"O c #592B16",
"+ c #592B17",
"@ c #553212",
"# c #5D3210",
"$ c #71452E",
"% c #944F0B",
"& c #95602E",
"* c #B16D27",
"= c #C25A2A",
"- c #D18C25",
"; c #D18129",
": c #D59434",
"> c #E08924",
", c #E38A24",
"< c #EAA926",
"1 c #EAB034",
"2 c #EEA842",
"3 c #F8C644",
"4 c #E9C762",
"5 c #ECC962",
"6 c #F6E16E",
/* pixels */
"                XX##  XX##      ",
"                XX##  XX##      ",
"              XX22::XX22::XX    ",
"              XX22::XX22::XX    ",
"                XX116611XX      ",
"                XX116611XX      ",
"                XXoo11##XX      ",
"                XXoo11##XX      ",
"                XX33##66XX      ",
"                XX33##66XX      ",
"                XX%%6633XX      ",
"                XX%%6633XX      ",
"                XX%%%%22XX      ",
"                XX%%%%22XX      ",
"                XX%%;;22##      ",
"                XX%%;;22##      ",
"             @@@XX%%;;22##      ",
"      @@@@@@@@@@XX%%;;22##      ",
"      @@54555555XX**;;--<<XX    ",
"      @@54555555XX**;;--<<XX    ",
"    @@55,,;;,,XX**;;;;--22##    ",
"    @@55,,;;,,XX**;;;;--22##    ",
"    %%&&==&&&&&&&&&&----22%%    ",
"    %%&&==&&&&&&&&&&----22%%    ",
"      @@&&==&&==&&&&--22##      ",
"      @@&&==&&==&&&&--22##      ",
"      %%==&&==&&==&&<<22%%      ",
"      %%==&&==&&==&&<<22%%      ",
"        ..++$$++%%..%%++..      ",
"        ..++$$++%%..%%++..      ",
"        ..........  ......      ",
"                                "
};
